<svg width="12" height="13" viewBox="0 0 12 13" fill="none" xmlns="http://www.w3.org/2000/svg">
<path fill-rule="evenodd" clip-rule="evenodd" d="M0.701172 3.60068C0.701172 2.37848 1.69196 1.3877 2.91416 1.3877H9.39728C10.6195 1.3877 11.6103 2.37848 11.6103 3.60068V10.0838C11.6103 11.306 10.6195 12.2968 9.39728 12.2968H2.91416C1.69196 12.2968 0.701172 11.306 0.701172 10.0838V3.60068ZM2.91416 2.32276C2.20838 2.32276 1.63624 2.89491 1.63624 3.60068V10.0838C1.63624 10.7896 2.20838 11.3617 2.91416 11.3617H9.39728C10.1031 11.3617 10.6752 10.7896 10.6752 10.0838V3.60068C10.6752 2.89491 10.1031 2.32276 9.39728 2.32276H2.91416Z" fill="#19172D"/>
<path fill-rule="evenodd" clip-rule="evenodd" d="M4.01831 0.675537C4.27652 0.675537 4.48585 0.884859 4.48585 1.14307V2.56793C4.48585 2.82614 4.27652 3.03546 4.01831 3.03546C3.7601 3.03546 3.55078 2.82614 3.55078 2.56793V1.14307C3.55078 0.884859 3.7601 0.675537 4.01831 0.675537Z" fill="#19172D"/>
<path fill-rule="evenodd" clip-rule="evenodd" d="M8.29322 0.675537C8.55143 0.675537 8.76075 0.884859 8.76075 1.14307V2.56793C8.76075 2.82614 8.55143 3.03546 8.29322 3.03546C8.03501 3.03546 7.82568 2.82614 7.82568 2.56793V1.14307C7.82568 0.884859 8.03501 0.675537 8.29322 0.675537Z" fill="#19172D"/>
<path fill-rule="evenodd" clip-rule="evenodd" d="M1.63624 6.13013C1.63624 8.03597 3.18123 9.58096 5.08708 9.58096H10.7865C11.0447 9.58096 11.254 9.79028 11.254 10.0485C11.254 10.3067 11.0447 10.516 10.7865 10.516H5.08708C2.66481 10.516 0.701172 8.55239 0.701172 6.13013H1.63624Z" fill="#19172D"/>
<path fill-rule="evenodd" clip-rule="evenodd" d="M3.19482 4.92749C3.19482 4.66928 3.40415 4.45996 3.66236 4.45996H3.97404C4.23226 4.45996 4.44158 4.66928 4.44158 4.92749C4.44158 5.1857 4.23226 5.39503 3.97404 5.39503H3.66236C3.40415 5.39503 3.19482 5.1857 3.19482 4.92749Z" fill="#19172D"/>
<path fill-rule="evenodd" clip-rule="evenodd" d="M5.68799 4.92749C5.68799 4.66928 5.89731 4.45996 6.15552 4.45996H6.46721C6.72542 4.45996 6.93474 4.66928 6.93474 4.92749C6.93474 5.1857 6.72542 5.39503 6.46721 5.39503H6.15552C5.89731 5.39503 5.68799 5.1857 5.68799 4.92749Z" fill="#19172D"/>
<path fill-rule="evenodd" clip-rule="evenodd" d="M8.18164 4.92749C8.18164 4.66928 8.39096 4.45996 8.64917 4.45996H8.96086C9.21907 4.45996 9.42839 4.66928 9.42839 4.92749C9.42839 5.1857 9.21907 5.39503 8.96086 5.39503H8.64917C8.39096 5.39503 8.18164 5.1857 8.18164 4.92749Z" fill="#19172D"/>
<path fill-rule="evenodd" clip-rule="evenodd" d="M3.19482 7.42139C3.19482 7.16318 3.40415 6.95386 3.66236 6.95386H3.97404C4.23226 6.95386 4.44158 7.16318 4.44158 7.42139C4.44158 7.6796 4.23226 7.88892 3.97404 7.88892H3.66236C3.40415 7.88892 3.19482 7.6796 3.19482 7.42139Z" fill="#19172D"/>
<path fill-rule="evenodd" clip-rule="evenodd" d="M5.68799 7.42139C5.68799 7.16318 5.89731 6.95386 6.15552 6.95386H6.46721C6.72542 6.95386 6.93474 7.16318 6.93474 7.42139C6.93474 7.6796 6.72542 7.88892 6.46721 7.88892H6.15552C5.89731 7.88892 5.68799 7.6796 5.68799 7.42139Z" fill="#19172D"/>
<path fill-rule="evenodd" clip-rule="evenodd" d="M8.18164 7.42139C8.18164 7.16318 8.39096 6.95386 8.64917 6.95386H8.96086C9.21907 6.95386 9.42839 7.16318 9.42839 7.42139C9.42839 7.6796 9.21907 7.88892 8.96086 7.88892H8.64917C8.39096 7.88892 8.18164 7.6796 8.18164 7.42139Z" fill="#19172D"/>
</svg>
