<svg width="18" height="19" viewBox="0 0 18 19" fill="none" xmlns="http://www.w3.org/2000/svg">
<path fill-rule="evenodd" clip-rule="evenodd" d="M8.75 4.26318C9.16421 4.26318 9.5 4.59897 9.5 5.01318V9.14869L12.0643 10.3322C12.4404 10.5058 12.6045 10.9514 12.431 11.3275C12.2574 11.7036 11.8118 11.8677 11.4357 11.6942L8.43571 10.3095C8.17009 10.1869 8 9.92111 8 9.62857V5.01318C8 4.59897 8.33579 4.26318 8.75 4.26318Z" fill="#19172D"/>
<path fill-rule="evenodd" clip-rule="evenodd" d="M5.931 0.738441C7.68138 -0.246147 9.81862 -0.246147 11.569 0.738441L14.569 2.42594C16.3795 3.44437 17.5 5.36018 17.5 7.4375V10.589C17.5 12.6663 16.3795 14.5822 14.569 15.6006L11.569 17.2881C9.81862 18.2727 7.68138 18.2727 5.931 17.2881L2.931 15.6006C1.12046 14.5822 0 12.6663 0 10.589V7.4375C0 5.36018 1.12046 3.44437 2.931 2.42594L5.931 0.738441ZM10.8336 2.0458C9.53985 1.31807 7.96015 1.31807 6.66639 2.0458L3.66639 3.7333C2.32816 4.48606 1.5 5.90209 1.5 7.4375V10.589C1.5 12.1244 2.32816 13.5405 3.66639 14.2932L6.66639 15.9807C7.96015 16.7085 9.53985 16.7085 10.8336 15.9807L13.8336 14.2932C15.1718 13.5405 16 12.1244 16 10.589V7.4375C16 5.90209 15.1718 4.48606 13.8336 3.7333L10.8336 2.0458Z" fill="#19172D"/>
</svg>
