<svg width="116" height="116" viewBox="0 0 116 116" fill="none" xmlns="http://www.w3.org/2000/svg">
<path fill-rule="evenodd" clip-rule="evenodd" d="M17.6039 49.9588C18.3427 44.9659 21.819 40.152 27.5834 38.3406L76.34 23.0187C86.5566 19.8081 95.6129 28.9169 92.3433 39.1148L76.74 87.782C74.8952 93.5359 70.0614 96.9842 65.0642 97.6942C60.0399 98.4081 54.5553 96.3551 51.895 90.9068L43.7259 74.1765C43.1409 72.9784 42.1926 72.0246 40.9979 71.4327L24.3151 63.1671C18.8822 60.4753 16.861 54.9789 17.6039 49.9588ZM23.7948 50.875C23.3818 53.6655 24.4805 56.2647 27.0935 57.5593L43.7763 65.8249C46.2095 67.0304 48.1582 68.9905 49.3497 71.4306L57.5187 88.1608C58.7982 90.7813 61.391 91.895 64.1839 91.4982C67.0038 91.0975 69.7267 89.1579 70.7805 85.8713L86.3838 37.2041C88.1041 31.8385 83.5916 27.2999 78.2162 28.9892L29.4596 44.311C26.167 45.3457 24.2117 48.0574 23.7948 50.875Z" fill="#7D4FE0"/>
<path fill-rule="evenodd" clip-rule="evenodd" d="M53.5333 61.6961L38.3062 69.2548L35.5236 63.6491L56.3563 53.3078C59.9477 51.5251 63.7412 55.3405 61.9377 58.9216L51.4763 79.6942L45.8868 76.8793L53.5333 61.6961Z" fill="#7D4FE0"/>
<path fill-rule="evenodd" clip-rule="evenodd" d="M19.9211 77.4668C18.7026 76.2413 18.7083 74.26 19.9339 73.0416L22.8926 70.0999C24.1181 68.8814 26.0994 68.8871 27.3179 70.1127C28.5363 71.3382 28.5306 73.3195 27.3051 74.538L24.3464 77.4796C23.1208 78.6981 21.1396 78.6924 19.9211 77.4668Z" fill="#FAC34E"/>
<path fill-rule="evenodd" clip-rule="evenodd" d="M37.5705 95.219C36.352 93.9935 36.3578 92.0122 37.5833 90.7938L40.542 87.8521C41.7675 86.6336 43.7488 86.6393 44.9673 87.8649C46.1858 89.0904 46.18 91.0717 44.9545 92.2902L41.9958 95.2318C40.7702 96.4503 38.789 96.4446 37.5705 95.219Z" fill="#FAC34E"/>
<path fill-rule="evenodd" clip-rule="evenodd" d="M25.7873 89.2842C24.5688 88.0587 24.5745 86.0774 25.8001 84.8589L34.6762 76.034C35.9018 74.8155 37.883 74.8212 39.1015 76.0467C40.32 77.2723 40.3143 79.2535 39.0887 80.472L30.2126 89.297C28.987 90.5155 27.0058 90.5098 25.7873 89.2842Z" fill="#FAC34E"/>
</svg>
