<svg width="11" height="14" viewBox="0 0 11 14" fill="none" xmlns="http://www.w3.org/2000/svg">
<path fill-rule="evenodd" clip-rule="evenodd" d="M0.746382 10.4303C0.981911 10.5362 1.08706 10.8129 0.981231 11.0484C0.908004 11.2114 0.914887 11.3764 1.05591 11.5768C1.21337 11.8006 1.53209 12.0501 2.04162 12.2743C2.54377 12.4953 3.17961 12.6689 3.89933 12.7733C4.61753 12.8774 5.38735 12.9081 6.14262 12.8618C6.89845 12.8156 7.60959 12.6942 8.21648 12.5117C8.82777 12.3278 9.29222 12.0943 9.59219 11.8487C9.8932 11.6023 9.97414 11.3926 9.97414 11.248C9.97414 10.9898 10.1835 10.7805 10.4417 10.7805C10.6999 10.7805 10.9092 10.9898 10.9092 11.248C10.9092 11.7731 10.6107 12.2233 10.1845 12.5723C9.75723 12.922 9.16762 13.202 8.4858 13.4071C7.79958 13.6135 7.01594 13.7452 6.19974 13.7952C5.38299 13.8451 4.549 13.8123 3.76511 13.6986C2.98274 13.5852 2.26165 13.3928 1.66497 13.1302C1.07567 12.8708 0.585444 12.5331 0.291182 12.1149C-0.0195245 11.6733 -0.0940856 11.1602 0.128305 10.6652C0.23413 10.4297 0.510852 10.3245 0.746382 10.4303Z" fill="#19172D"/>
<path fill-rule="evenodd" clip-rule="evenodd" d="M6.87926 10.274L8.61456 6.32245C9.53194 4.23343 7.95794 1.81812 5.45446 1.81812C2.95098 1.81812 1.37697 4.23343 2.29435 6.32245L4.02966 10.274C4.26083 10.8005 4.81347 11.1688 5.45446 11.1688C6.09544 11.1688 6.64808 10.8005 6.87926 10.274ZM5.45446 0.883057C2.33566 0.883057 0.225922 3.93786 1.4382 6.69842L3.17351 10.65C3.56043 11.5311 4.45903 12.1038 5.45446 12.1038C6.44988 12.1038 7.34849 11.5311 7.73541 10.65L9.47071 6.69842C10.683 3.93786 8.57325 0.883057 5.45446 0.883057Z" fill="#19172D"/>
<path d="M6.70103 4.62322C6.70103 5.31178 6.14284 5.86997 5.45427 5.86997C4.76571 5.86997 4.20752 5.31178 4.20752 4.62322C4.20752 3.93466 4.76571 3.37646 5.45427 3.37646C6.14284 3.37646 6.70103 3.93466 6.70103 4.62322Z" fill="#19172D"/>
</svg>
