<svg width="20" height="21" viewBox="0 0 20 21" fill="none" xmlns="http://www.w3.org/2000/svg">
<path fill-rule="evenodd" clip-rule="evenodd" d="M0 5.22915C0 3.04447 1.77103 1.27344 3.95571 1.27344H15.5443C17.729 1.27344 19.5 3.04447 19.5 5.22915V16.8177C19.5 19.0024 17.729 20.7734 15.5443 20.7734H3.95571C1.77103 20.7734 0 19.0024 0 16.8177V5.22915ZM3.95571 2.94487C2.69414 2.94487 1.67143 3.96758 1.67143 5.22915V16.8177C1.67143 18.0793 2.69414 19.102 3.95571 19.102H15.5443C16.8059 19.102 17.8286 18.0793 17.8286 16.8177V5.22915C17.8286 3.96758 16.8059 2.94487 15.5443 2.94487H3.95571Z" fill="#7D4FE0"/>
<path fill-rule="evenodd" clip-rule="evenodd" d="M5.92946 0C6.39102 0 6.76518 0.374162 6.76518 0.835714V3.38265C6.76518 3.84421 6.39102 4.21837 5.92946 4.21837C5.46791 4.21837 5.09375 3.84421 5.09375 3.38265V0.835714C5.09375 0.374162 5.46791 0 5.92946 0Z" fill="#7D4FE0"/>
<path fill-rule="evenodd" clip-rule="evenodd" d="M13.5706 0C14.0321 0 14.4063 0.374162 14.4063 0.835714V3.38265C14.4063 3.84421 14.0321 4.21837 13.5706 4.21837C13.109 4.21837 12.7349 3.84421 12.7349 3.38265V0.835714C12.7349 0.374162 13.109 0 13.5706 0Z" fill="#7D4FE0"/>
<path fill-rule="evenodd" clip-rule="evenodd" d="M1.67143 9.75C1.67143 13.1567 4.43311 15.9184 7.8398 15.9184H18.0276C18.4891 15.9184 18.8633 16.2925 18.8633 16.7541C18.8633 17.2156 18.4891 17.5898 18.0276 17.5898H7.8398C3.51 17.5898 0 14.0798 0 9.75H1.67143Z" fill="#7D4FE0"/>
<path fill-rule="evenodd" clip-rule="evenodd" d="M4.45703 7.6011C4.45703 7.13954 4.83119 6.76538 5.29275 6.76538H5.84989C6.31144 6.76538 6.6856 7.13954 6.6856 7.6011C6.6856 8.06265 6.31144 8.43681 5.84989 8.43681H5.29275C4.83119 8.43681 4.45703 8.06265 4.45703 7.6011Z" fill="#7D4FE0"/>
<path fill-rule="evenodd" clip-rule="evenodd" d="M8.91406 7.6011C8.91406 7.13954 9.28822 6.76538 9.74978 6.76538H10.3069C10.7685 6.76538 11.1426 7.13954 11.1426 7.6011C11.1426 8.06265 10.7685 8.43681 10.3069 8.43681H9.74978C9.28822 8.43681 8.91406 8.06265 8.91406 7.6011Z" fill="#7D4FE0"/>
<path fill-rule="evenodd" clip-rule="evenodd" d="M13.3716 7.6011C13.3716 7.13954 13.7457 6.76538 14.2073 6.76538H14.7644C15.226 6.76538 15.6002 7.13954 15.6002 7.6011C15.6002 8.06265 15.226 8.43681 14.7644 8.43681H14.2073C13.7457 8.43681 13.3716 8.06265 13.3716 7.6011Z" fill="#7D4FE0"/>
<path fill-rule="evenodd" clip-rule="evenodd" d="M4.45703 12.0584C4.45703 11.5968 4.83119 11.2227 5.29275 11.2227H5.84989C6.31144 11.2227 6.6856 11.5968 6.6856 12.0584C6.6856 12.5199 6.31144 12.8941 5.84989 12.8941H5.29275C4.83119 12.8941 4.45703 12.5199 4.45703 12.0584Z" fill="#7D4FE0"/>
<path fill-rule="evenodd" clip-rule="evenodd" d="M8.91406 12.0584C8.91406 11.5968 9.28822 11.2227 9.74978 11.2227H10.3069C10.7685 11.2227 11.1426 11.5968 11.1426 12.0584C11.1426 12.5199 10.7685 12.8941 10.3069 12.8941H9.74978C9.28822 12.8941 8.91406 12.5199 8.91406 12.0584Z" fill="#7D4FE0"/>
<path fill-rule="evenodd" clip-rule="evenodd" d="M13.3716 12.0584C13.3716 11.5968 13.7457 11.2227 14.2073 11.2227H14.7644C15.226 11.2227 15.6002 11.5968 15.6002 12.0584C15.6002 12.5199 15.226 12.8941 14.7644 12.8941H14.2073C13.7457 12.8941 13.3716 12.5199 13.3716 12.0584Z" fill="#7D4FE0"/>
</svg>
