<svg width="28" height="27" viewBox="0 0 28 27" fill="none" xmlns="http://www.w3.org/2000/svg">
<path d="M24.6806 10.388L14.3039 20.0828C14.2244 20.1562 14.1171 20.1974 14.0053 20.1974C13.8935 20.1974 13.7863 20.1562 13.7067 20.0828L13.429 19.823L10.2377 16.8443L8.51841 15.2367L6.52696 13.3694C6.48741 13.3329 6.456 13.2895 6.43456 13.2415C6.41313 13.1936 6.40209 13.1422 6.40209 13.0902C6.40209 13.0383 6.41313 12.9869 6.43456 12.9389C6.456 12.891 6.48741 12.8475 6.52696 12.8111L13.7123 6.09253C13.7918 6.0191 13.8991 5.97793 14.0109 5.97793C14.1226 5.97793 14.2299 6.0191 14.3095 6.09253L16.0037 7.67932C16.0433 7.7158 16.0747 7.75927 16.0961 7.8072C16.1175 7.85512 16.1286 7.90655 16.1286 7.9585C16.1286 8.01045 16.1175 8.06188 16.0961 8.10981C16.0747 8.15773 16.0433 8.2012 16.0037 8.23768L11.1098 12.8111C11.0702 12.8475 11.0388 12.891 11.0174 12.9389C10.996 12.9869 10.9849 13.0383 10.9849 13.0902C10.9849 13.1422 10.996 13.1936 11.0174 13.2415C11.0388 13.2895 11.0702 13.3329 11.1098 13.3694L13.6956 15.7873C13.7346 15.8242 13.7811 15.8536 13.8324 15.8737C13.8836 15.8937 13.9386 15.904 13.9942 15.904C14.0498 15.904 14.1048 15.8937 14.156 15.8737C14.2073 15.8536 14.2538 15.8242 14.2928 15.7873L22.3808 8.23249C22.4204 8.19601 22.4518 8.15254 22.4732 8.10461C22.4946 8.05669 22.5057 8.00526 22.5057 7.95331C22.5057 7.90136 22.4946 7.84993 22.4732 7.802C22.4518 7.75407 22.4204 7.71061 22.3808 7.67413L19.495 4.97321L17.2008 2.82806L14.2983 0.116759C14.2593 0.0797757 14.2128 0.0504092 14.1616 0.0303654C14.1103 0.0103216 14.0553 -7.48415e-08 13.9998 -7.45456e-08C13.9442 -7.42498e-08 13.8892 0.0103216 13.8379 0.0303654C13.7867 0.0504092 13.7402 0.0797757 13.7012 0.116759L0.124872 12.8111C0.0853187 12.8475 0.0539118 12.891 0.0324753 12.9389C0.0110388 12.9869 -2.07936e-08 13.0383 -2.08765e-08 13.0902C-2.09593e-08 13.1422 0.0110388 13.1936 0.0324753 13.2415C0.0539118 13.2895 0.0853187 13.3329 0.124872 13.3694L13.7012 26.0663C13.7807 26.1397 13.888 26.1809 13.9998 26.1809C14.1115 26.1809 14.2188 26.1397 14.2983 26.0663L27.8774 13.3694C27.956 13.2951 28 13.1948 28 13.0902C28 12.9857 27.956 12.8854 27.8774 12.8111L25.2749 10.388C25.1955 10.3154 25.0888 10.2747 24.9777 10.2747C24.8666 10.2747 24.76 10.3154 24.6806 10.388V10.388Z" fill="#7D4FE0"/>
</svg>
